<svg width="181px" height="128px" viewBox="0 0 503 355">
    <defs></defs>
    <g id="Page-1" stroke="none" stroke-width="1" fill="none" fill-rule="evenodd" sketch:type="MSPage">
        <path d="M461.086473,85.0964101 C461.086473,85.0964101 452.681473,29.7434101 369.338473,49.5554101 C294.950473,62.2884101 258.317473,55.5934101 225.997473,12.8554101 C225.997473,12.8554101 214.093473,38.6144101 244.056473,60.4134101 C244.056473,60.4134101 86.0854729,61.0194101 25.3104729,15.1514101 C-35.4735271,-30.7175899 32.3194729,42.1874101 32.3194729,42.1874101 C32.3194729,42.1874101 68.8854729,69.0444101 89.5274729,74.7804101 C89.5274729,74.7804101 21.0214729,64.7614101 4.42047294,63.4344101 C-11.1225271,62.1944101 65.4454729,113.77341 111.319473,118.36341 C157.187473,122.94841 53.8344729,123.72241 52.8354729,126.37541 C51.8324729,129.04241 117.050473,163.07941 135.398473,164.22941 C153.745473,165.37541 80.8034729,175.67241 75.4814729,180.34241 C70.1534729,185.00941 151.452473,210.10441 151.452473,210.10441 C151.452473,210.10441 119.945473,228.13441 118.198473,231.88041 C116.458473,235.62941 177.824473,237.61841 177.824473,237.61841 C177.824473,237.61841 139.317473,254.84041 136.552473,260.56041 C133.770473,266.28341 208.798473,280.04441 208.798473,280.04441 L182.415473,308.72141 L238.602473,313.31041 C238.602473,313.31041 222.555473,325.91741 227.137473,327.08041 C231.727473,328.21141 294.812473,324.77141 292.510473,328.21141 C290.215473,331.65241 290.086473,354.20441 296.968473,354.20441 C303.844473,354.20441 364.764473,274.30941 502.367473,257.11541 C505.964473,256.66541 414.068473,198.62941 461.086473,85.0964101 Z" id="Imported-Layers" fill="#FFFFFF"></path>
    </g>
</svg>